# xmcd
#
# Track frame offsets: 
#        150
#        19142
#        34717
#        49192
#        67155
#        83777
#        97895
#        114917
#        134097
#        152142
#
# Disc length: 2252 seconds
#
# Revision: 0
# Processed by: cddbd v1.5.1PL0 Copyright (c) Steve Scherf et al.
# Submitted via: ExactAudioCopy v0.95a2
#
DISCID=8108ca0a
DTITLE=Freddie King - Key To The Highway
DYEAR=1991
DGENRE=Blues
TTITLE0=Tore Down
TTITLE1=Key To The Highway
TTITLE2=Dust My Broom
TTITLE3=Same Old Blues
TTITLE4=Palace Of The King
TTITLE5=Lowdown In Lodi
TTITLE6=I'd Rather Be Blind
TTITLE7=Living On The Highway
TTITLE8=Reconsider Baby
TTITLE9=Boogie Man
EXTD=
EXTT0=
EXTT1=
EXTT2=
EXTT3=
EXTT4=
EXTT5=
EXTT6=
EXTT7=
EXTT8=
EXTT9=
PLAYORDER=
